<mxfile host="app.diagrams.net" modified="2024-05-20T18:01:34.957Z" agent="Mozilla/5.0 (Windows NT 10.0; Win64; x64; rv:126.0) Gecko/20100101 Firefox/126.0" etag="VMgvZlZclKRRXS6BhHQ_" version="24.4.4" type="github">
  <diagram name="Page-1" id="Z3DuzpICTh4GMaO6C3C9">
    <mxGraphModel dx="2390" dy="1302" grid="1" gridSize="10" guides="1" tooltips="1" connect="1" arrows="1" fold="1" page="1" pageScale="1" pageWidth="850" pageHeight="1100" math="0" shadow="0">
      <root>
        <mxCell id="0" />
        <mxCell id="1" parent="0" />
        <mxCell id="ifs0U7B9Us3LK8llfT2l-1" value="Flip a Coin" style="ellipse;whiteSpace=wrap;html=1;aspect=fixed;strokeWidth=3;fontSize=15;fontStyle=1" vertex="1" parent="1">
          <mxGeometry x="285" y="360" width="80" height="80" as="geometry" />
        </mxCell>
        <mxCell id="ifs0U7B9Us3LK8llfT2l-3" value="" style="endArrow=classic;html=1;rounded=0;exitX=1;exitY=0.5;exitDx=0;exitDy=0;strokeWidth=3;fontSize=15;fontStyle=1" edge="1" parent="1" source="ifs0U7B9Us3LK8llfT2l-1" target="ifs0U7B9Us3LK8llfT2l-4">
          <mxGeometry width="50" height="50" relative="1" as="geometry">
            <mxPoint x="295" y="430" as="sourcePoint" />
            <mxPoint x="525" y="340" as="targetPoint" />
            <Array as="points">
              <mxPoint x="445" y="400" />
              <mxPoint x="445" y="320" />
            </Array>
          </mxGeometry>
        </mxCell>
        <mxCell id="ifs0U7B9Us3LK8llfT2l-4" value="&lt;div style=&quot;font-size: 15px;&quot;&gt;Heads&lt;/div&gt;" style="ellipse;whiteSpace=wrap;html=1;aspect=fixed;strokeWidth=3;fontSize=15;fontStyle=1" vertex="1" parent="1">
          <mxGeometry x="475" y="280" width="80" height="80" as="geometry" />
        </mxCell>
        <mxCell id="ifs0U7B9Us3LK8llfT2l-5" value="Tails" style="ellipse;whiteSpace=wrap;html=1;aspect=fixed;strokeWidth=3;fontSize=15;fontStyle=1" vertex="1" parent="1">
          <mxGeometry x="475" y="440" width="80" height="80" as="geometry" />
        </mxCell>
        <mxCell id="ifs0U7B9Us3LK8llfT2l-7" value="" style="endArrow=classic;html=1;rounded=0;strokeWidth=3;fontSize=15;fontStyle=1" edge="1" parent="1">
          <mxGeometry width="50" height="50" relative="1" as="geometry">
            <mxPoint x="445" y="400" as="sourcePoint" />
            <mxPoint x="475" y="480" as="targetPoint" />
            <Array as="points">
              <mxPoint x="445" y="440" />
              <mxPoint x="445" y="480" />
            </Array>
          </mxGeometry>
        </mxCell>
        <mxCell id="ifs0U7B9Us3LK8llfT2l-9" value="Player 1 Action" style="text;strokeColor=none;fillColor=none;align=left;verticalAlign=middle;spacingLeft=4;spacingRight=4;overflow=hidden;points=[[0,0.5],[1,0.5]];portConstraint=eastwest;rotatable=0;whiteSpace=wrap;html=1;strokeWidth=3;fontSize=15;fontStyle=1" vertex="1" parent="1">
          <mxGeometry x="280" y="320" width="100" height="30" as="geometry" />
        </mxCell>
        <mxCell id="ifs0U7B9Us3LK8llfT2l-10" value="" style="endArrow=none;dashed=1;html=1;rounded=0;strokeWidth=3;fontSize=15;fontStyle=1;startArrow=block;startFill=1;" edge="1" parent="1">
          <mxGeometry width="50" height="50" relative="1" as="geometry">
            <mxPoint x="665" y="320" as="sourcePoint" />
            <mxPoint x="565" y="320" as="targetPoint" />
          </mxGeometry>
        </mxCell>
        <mxCell id="ifs0U7B9Us3LK8llfT2l-11" value="" style="endArrow=none;dashed=1;html=1;rounded=0;strokeWidth=3;fontSize=15;fontStyle=1;startArrow=block;startFill=1;" edge="1" parent="1">
          <mxGeometry width="50" height="50" relative="1" as="geometry">
            <mxPoint x="665" y="479.65999999999997" as="sourcePoint" />
            <mxPoint x="565" y="479.65999999999997" as="targetPoint" />
          </mxGeometry>
        </mxCell>
        <mxCell id="ifs0U7B9Us3LK8llfT2l-12" value="Player 1 Loses" style="text;strokeColor=none;fillColor=none;align=left;verticalAlign=middle;spacingLeft=4;spacingRight=4;overflow=hidden;points=[[0,0.5],[1,0.5]];portConstraint=eastwest;rotatable=0;whiteSpace=wrap;html=1;strokeWidth=3;fontSize=15;fontStyle=1" vertex="1" parent="1">
          <mxGeometry x="685" y="305" width="100" height="30" as="geometry" />
        </mxCell>
        <mxCell id="ifs0U7B9Us3LK8llfT2l-13" value="Player 1 Wins" style="text;strokeColor=none;fillColor=none;align=left;verticalAlign=middle;spacingLeft=4;spacingRight=4;overflow=hidden;points=[[0,0.5],[1,0.5]];portConstraint=eastwest;rotatable=0;whiteSpace=wrap;html=1;strokeWidth=3;fontSize=15;fontStyle=1" vertex="1" parent="1">
          <mxGeometry x="685" y="465" width="100" height="30" as="geometry" />
        </mxCell>
      </root>
    </mxGraphModel>
  </diagram>
</mxfile>
